<svg width="264" height="306" viewBox="0 0 264 306" fill="none" xmlns="http://www.w3.org/2000/svg">
  <path d="M262 227.163L132 302.163L2 227.163L2 77.1635L132 2.16351L262 77.1635L262 227.163Z" fill="#1F1F1F" />
  <path fill-rule="evenodd" clip-rule="evenodd"
    d="M222.595 147.853L222.595 100.07L263.995 76.1635V123.969L222.595 147.853ZM177.194 174.046L177.194 126.264L218.594 102.357L218.594 150.162L177.194 174.046ZM131.998 152.336L131.998 200.119L173.398 176.235L173.398 128.43L131.998 152.336ZM222.595 152.665L222.595 200.448L263.995 176.564L263.995 128.758L222.595 152.665ZM177.194 178.859V226.641L218.594 202.757L218.594 154.952L177.194 178.859ZM131.998 252.714L131.998 204.931L173.398 181.025V228.83L131.998 252.714ZM222.595 205.265V253.047L263.995 229.164L263.995 181.358L222.595 205.265ZM177.194 231.458L177.194 279.241L218.594 255.357V207.552L177.194 231.458ZM131.998 305.314V257.531L173.398 233.625L173.398 281.43L131.998 305.314Z"
    fill="url(#paint0_linear_183_2)" />
  <path fill-rule="evenodd" clip-rule="evenodd"
    d="M222.595 100.07L263.995 76.1635V123.969L222.595 147.853L222.595 100.07ZM223.595 146.121L223.595 100.647L262.995 77.8957V123.391L223.595 146.121ZM178.194 126.841L217.594 104.089L217.594 149.585L178.194 172.315L178.194 126.841ZM177.194 126.264L218.594 102.357L218.594 150.162L177.194 174.046L177.194 126.264ZM132.998 152.914L172.398 130.162L172.398 175.658L132.998 198.388L132.998 152.914ZM131.998 152.336L173.398 128.43L173.398 176.235L131.998 200.119L131.998 152.336ZM223.595 153.242L262.995 130.491L262.995 175.986L223.595 198.716L223.595 153.242ZM222.595 152.665L263.995 128.758L263.995 176.564L222.595 200.448L222.595 152.665ZM177.194 178.859L218.594 154.952L218.594 202.757L177.194 226.641V178.859ZM178.194 224.91V179.436L217.594 156.684L217.594 202.18L178.194 224.91ZM132.998 205.509L172.398 182.757V228.253L132.998 250.983L132.998 205.509ZM131.998 204.931L173.398 181.025V228.83L131.998 252.714L131.998 204.931ZM223.595 205.842L262.995 183.091V228.586L223.595 251.316V205.842ZM222.595 205.265L263.995 181.358V229.164L222.595 253.047V205.265ZM177.194 231.458L218.594 207.552V255.357L177.194 279.241L177.194 231.458ZM178.194 277.51L178.194 232.036L217.594 209.284V254.78L178.194 277.51ZM132.998 258.108L172.398 235.357L172.398 280.852L132.998 303.583V258.108ZM131.998 257.531L173.398 233.625L173.398 281.43L131.998 305.314V257.531Z"
    fill="#1F1F1F" />
  <path fill-rule="evenodd" clip-rule="evenodd"
    d="M41.4 100.07L41.4 147.853L0 123.969L0 76.1635L41.4 100.07ZM86.8009 174.046L86.8009 126.264L45.4009 102.357L45.4009 150.162L86.8009 174.046ZM131.998 200.119L131.998 152.336L90.5976 128.43L90.5976 176.235L131.998 200.119ZM41.4 200.448L41.4 152.665L0 128.758L0 176.564L41.4 200.448ZM86.8009 178.859L86.8009 226.641L45.4009 202.757L45.4009 154.952L86.8009 178.859ZM131.998 204.931L131.998 252.714L90.5976 228.83L90.5976 181.025L131.998 204.931ZM41.4 253.047L41.4 205.265L0 181.358L0 229.164L41.4 253.047ZM86.8009 231.458L86.8009 279.241L45.4009 255.357L45.4009 207.552L86.8009 231.458ZM131.998 257.531V305.314L90.5976 281.43L90.5976 233.625L131.998 257.531Z"
    fill="url(#paint1_linear_183_2)" />
  <path fill-rule="evenodd" clip-rule="evenodd"
    d="M41.4 100.07L0 76.1635L0 123.969L41.4 147.853L41.4 100.07ZM40.4 146.121L40.4 100.647L1 77.8957L1 123.391L40.4 146.121ZM86.8009 126.264L45.4009 102.357L45.4009 150.162L86.8009 174.046L86.8009 126.264ZM85.8009 172.315L85.8009 126.841L46.4009 104.089L46.4009 149.585L85.8009 172.315ZM130.998 152.914L91.5976 130.162L91.5976 175.658L130.998 198.388L130.998 152.914ZM131.998 152.336L90.5976 128.43L90.5976 176.235L131.998 200.119L131.998 152.336ZM40.4 153.242L1 130.491L1 175.986L40.4 198.716L40.4 153.242ZM41.4 152.665L0 128.758L0 176.564L41.4 200.448L41.4 152.665ZM85.8009 179.436L46.4009 156.684L46.4009 202.18L85.8009 224.91L85.8009 179.436ZM86.8009 178.859L45.4009 154.952L45.4009 202.757L86.8009 226.641L86.8009 178.859ZM130.998 205.509L91.5976 182.757L91.5976 228.253L130.998 250.983L130.998 205.509ZM131.998 204.931L90.5976 181.025L90.5976 228.83L131.998 252.714L131.998 204.931ZM40.4 205.842L1 183.091L1 228.586L40.4 251.316L40.4 205.842ZM41.4 205.265L0 181.358L0 229.164L41.4 253.047L41.4 205.265ZM85.8009 232.036L46.4009 209.284L46.4009 254.78L85.8009 277.51L85.8009 232.036ZM86.8009 231.458L45.4009 207.552L45.4009 255.357L86.8009 279.241L86.8009 231.458ZM130.998 258.108L91.5976 235.357L91.5976 280.852L130.998 303.583V258.108ZM131.998 257.531L90.5976 233.625L90.5976 281.43L131.998 305.314V257.531Z"
    fill="#1F1F1F" />
  <path fill-rule="evenodd" clip-rule="evenodd"
    d="M173.398 23.9022L131.999 47.8046L90.5967 23.9022L131.995 -6.10352e-05L173.398 23.9022ZM177.4 74.0002L218.799 50.0978L177.396 26.1955L135.998 50.0978L177.4 74.0002ZM222.597 100.07L263.995 76.1679L222.593 52.2656L181.194 76.1679L222.597 100.07ZM86.5952 73.9994L127.994 50.0971L86.5914 26.1948L45.1929 50.0971L86.5952 73.9994ZM173.395 76.2926L131.996 100.195L90.594 76.2926L131.992 52.3903L173.395 76.2926ZM218.591 102.363L177.193 126.265L135.791 102.363L177.189 78.4604L218.591 102.363ZM41.4023 100.066L82.8008 76.1635L41.3985 52.2612L0 76.1635L41.4023 100.066ZM128.202 102.359L86.8034 126.261L45.4011 102.359L86.7996 78.4567L128.202 102.359ZM173.398 128.429L132 152.332L90.5977 128.429L131.996 104.527L173.398 128.429Z"
    fill="url(#paint2_linear_183_2)" />
  <path fill-rule="evenodd" clip-rule="evenodd"
    d="M173.398 23.9022L131.995 -6.10352e-05L90.5967 23.9022L131.999 47.8046L173.398 23.9022ZM171.397 23.9023L131.995 1.15464L92.5967 23.9022L131.999 46.6499L171.397 23.9023ZM218.799 50.0978L177.396 26.1955L135.998 50.0978L177.4 74.0002L218.799 50.0978ZM216.799 50.0978L177.396 27.3502L137.998 50.0977L177.4 72.8455L216.799 50.0978ZM263.995 76.1679L222.593 52.2656L181.194 76.1679L222.597 100.07L263.995 76.1679ZM261.995 76.168L222.593 53.4203L183.194 76.1679L222.597 98.9156L261.995 76.168ZM127.994 50.0971L86.5914 26.1948L45.1929 50.0971L86.5952 73.9994L127.994 50.0971ZM125.994 50.0971L86.5914 27.3495L47.1929 50.097L86.5951 72.8447L125.994 50.0971ZM173.395 76.2926L131.992 52.3903L90.594 76.2926L131.996 100.195L173.395 76.2926ZM171.395 76.2927L131.993 53.545L92.594 76.2926L131.996 99.0403L171.395 76.2927ZM218.591 102.363L177.189 78.4604L135.791 102.363L177.193 126.265L218.591 102.363ZM216.591 102.363L177.189 79.6151L137.791 102.363L177.193 125.11L216.591 102.363ZM82.8008 76.1635L41.3985 52.2612L0 76.1635L41.4023 100.066L82.8008 76.1635ZM80.8008 76.1635L41.3985 53.4159L2.00001 76.1634L41.4023 98.9111L80.8008 76.1635ZM128.202 102.359L86.7996 78.4567L45.4011 102.359L86.8034 126.261L128.202 102.359ZM126.202 102.359L86.7996 79.6114L47.4011 102.359L86.8034 125.107L126.202 102.359ZM173.398 128.429L131.996 104.527L90.5977 128.429L132 152.332L173.398 128.429ZM171.398 128.429L131.996 105.682L92.5977 128.429L132 151.177L171.398 128.429Z"
    fill="#1F1F1F" />
  <defs>
    <linearGradient id='paint0_linear_183_2' x1="132" y1="136" x2="241" y2="251" gradientUnits="userSpaceOnUse">
      <stop stop-color="#262581" />
      <stop offset="0.488379" stop-color="#22206D" />
      <stop offset="1" stop-color="#17158B" />
    </linearGradient>
    <linearGradient id="paint1_linear_183_2" x1="-47.5" y1="79.4999" x2="138.5" y2="269.5"
      gradientUnits="userSpaceOnUse">
      <stop offset="0.000453062" stop-color="#FA6767" />
      <stop offset="0.713542" stop-color="#ED2F2F" />
      <stop offset="1" stop-color="#D51717" />
    </linearGradient>
    <linearGradient id="paint2_linear_183_2" x1="-84.5" y1="75.9999" x2="341.5" y2="75.9999"
      gradientUnits="userSpaceOnUse">
      <stop offset="0.1987" stop-color="white" />
      <stop offset="0.817755" stop-color="#DFDFDF" />
    </linearGradient>
  </defs>
</svg>